#!OML:ASF F:\VICON\USERDATA\INSTALL\rory3\rory3.ASF
:FULLY-SPECIFIED
:DEGREES
188
root 10.0564 17.5777 -5.95254 -101.821 85.8775 -98.7591
lowerback 12.1195 0.212644 -2.41025
upperback 1.63195 0.13555 1.80123
thorax -5.09302 0.158153 3.22891
lowerneck -7.32581 -9.09356 -12.9237
upperneck 41.098 -11.5866 7.50098
head 17.8275 -5.18939 3.9628
rclavicle -3.97569e-016 -3.57812e-015
rhumerus -37.9207 -23.0738 -74.3101
rradius 31.7859
rwrist 8.01369
rhand -21.101 10.9698
rfingers 7.12502
rthumb 5.27683 -18.9445
lclavicle -3.97569e-016 -3.57812e-015
lhumerus -33.7187 14.7938 72.6356
lradius 31.8675
lwrist -4.87218
lhand -20.672 26.9742
lfingers 7.12502
lthumb 5.69103 56.8778
rfemur -0.461286 0.798834 11.5251
rtibia 21.8036
rfoot -14.6263 1.29816
rtoes -16.1101
lfemur -3.60242 -12.6695 1.65851
ltibia 22.1514
lfoot -4.70156 2.0022
ltoes -30.2384
189
root 10.0438 17.6005 -5.82844 -97.2177 85.6432 -94.1181
lowerback 12.1559 0.273855 -2.07461
upperback 1.693 0.264931 1.83654
thorax -5.05744 0.215752 3.0541
lowerneck -7.49594 -9.16576 -12.4926
upperneck 41.3092 -11.6063 7.05219
head 17.9093 -5.17786 3.67391
rclavicle -8.44835e-016 -1.5704e-014
rhumerus -37.7063 -22.7284 -74.5837
rradius 31.8188
rwrist 7.79774
rhand -21.1799 10.8374
rfingers 7.12502
rthumb 5.20067 -19.0787
lclavicle -8.44835e-016 -1.5704e-014
lhumerus -33.9134 14.4436 72.923
lradius 32.7049
lwrist -4.02388
lhand -20.9317 27.3004
lfingers 7.12502
lthumb 5.44026 57.2106
rfemur -0.350434 1.91566 12.3262
rtibia 21.5044
rfoot -14.5444 1.21008
rtoes -13.5437
lfemur -3.58552 -12.777 2.22124
ltibia 22.3535
lfoot -3.63397 2.57942
ltoes -28.4071
190
root 10.027 17.6242 -5.69878 -94.2744 85.3962 -91.2298
lowerback 12.155 0.313422 -1.85132
upperback 1.71697 0.350705 1.88309
thorax -5.03677 0.254329 2.96217
lowerneck -7.66443 -9.08521 -12.5715
upperneck 41.6156 -11.4368 7.07565
head 18.1244 -5.10715 3.74201
rclavicle -3.72721e-016 4.37326e-015
rhumerus -37.419 -22.1794 -74.9168
rradius 31.8412
rwrist 7.20945
rhand -21.1977 10.5101
rfingers 7.12502
rthumb 5.18349 -19.4065
lclavicle -3.72721e-016 4.37326e-015
lhumerus -34.0776 14.2365 73.1939
lradius 33.4753
lwrist -3.40309
lhand -20.851 27.3306
lfingers 7.12502
lthumb 5.51824 57.2388
rfemur -0.261685 3.33281 13.1549
rtibia 21.1129
rfoot -14.3733 1.02395
rtoes -9.4853
lfemur -3.82163 -12.7603 2.78683
ltibia 22.7141
lfoot -2.56327 3.17572
ltoes -27.2131
191
root 10.0002 17.6463 -5.57069 -93.3248 85.208 -90.3185
lowerback 12.3177 0.376229 -1.62855
upperback 1.71767 0.461995 1.86087
thorax -5.13172 0.306568 2.7944
lowerneck -7.58229 -9.08689 -12.5614
upperneck 41.5797 -11.5267 7.28619
head 18.116 -5.11703 3.82649
rclavicle 1.44119e-015 1.53064e-014
rhumerus -37.2442 -21.9959 -75.1257
rradius 31.9231
rwrist 6.74408
rhand -21.0115 10.3387
rfingers 7.12502
rthumb 5.3632 -19.5735
lclavicle 1.44119e-015 1.53064e-014
lhumerus -34.0494 14.4222 73.314
lradius 33.7326
lwrist -3.63276
lhand -20.6354 27.0806
lfingers 7.12502
lthumb 5.72636 56.9832
rfemur -0.206685 3.70696 13.8671
rtibia 20.6881
rfoot -14.2227 0.909201
rtoes -10.8995
lfemur -4.24194 -12.631 3.25921
ltibia 23.1811
lfoot -1.38008 3.50037
ltoes -26.8518
192
root 9.97595 17.6693 -5.45475 -92.7685 85.2055 -89.799
lowerback 12.4038 0.360335 -1.49033
upperback 1.75716 0.456016 1.79381
thorax -5.13591 0.300624 2.6463
lowerneck -7.58561 -9.06167 -12.4886
upperneck 41.5365 -11.5317 7.35065
head 18.0893 -5.10143 3.84179
rclavicle -1.21756e-015 7.15625e-015
rhumerus -36.9895 -21.7006 -75.405
rradius 31.9874
rwrist 6.54077
rhand -21.0652 10.1319
rfingers 7.12502
rthumb 5.31142 -19.7815
lclavicle -1.21756e-015 7.15625e-015
lhumerus -34.0876 14.7546 73.424
lradius 34.0438
lwrist -3.73932
lhand -20.8402 27.0706
lfingers 7.12502
lthumb 5.52865 56.9785
rfemur -0.1646 3.574 14.2107
rtibia 20.3025
rfoot -14.1682 1.43568
rtoes -10.7261
lfemur -4.66109 -12.8087 3.4282
ltibia 23.6961
lfoot -0.175591 4.08406
ltoes -23.96
193
root 9.96346 17.7009 -5.34193 -92.0996 85.2402 -89.2699
lowerback 12.1641 0.314027 -1.45247
upperback 1.82807 0.400003 1.77252
thorax -4.92497 0.269259 2.61085
lowerneck -7.63996 -9.04494 -12.4627
upperneck 41.5809 -11.472 7.26286
head 18.109 -5.08376 3.80628
rclavicle 9.93923e-017 4.57205e-015
rhumerus -36.6589 -21.2602 -75.6299
rradius 32.0027
rwrist 6.46291
rhand -21.1787 10.1325
rfingers 7.12502
rthumb 5.2018 -19.7836
lclavicle 9.93923e-017 4.57205e-015
lhumerus -34.2511 14.7566 73.6871
lradius 34.6905
lwrist -3.38722
lhand -20.9754 27.0496
lfingers 7.12502
lthumb 5.39807 56.9609
rfemur -0.162856 3.37022 14.4711
rtibia 19.9512
rfoot -14.2374 2.00897
rtoes -9.63446
lfemur -5.12489 -12.9545 3.51472
ltibia 24.203
lfoot 1.02267 4.95923
ltoes -19.3635
